<?xml version="1.0" standalone="no"?>
<!DOCTYPE svg PUBLIC "-//W3C//DTD SVG 20010904//EN"
 "http://www.w3.org/TR/2001/REC-SVG-20010904/DTD/svg10.dtd">
<svg version="1.0" xmlns="http://www.w3.org/2000/svg"
 viewBox="0 0 2600.000000 2600.000000"
 preserveAspectRatio="xMidYMid meet">
<metadata>
Created by potrace 1.15, written by Peter Selinger 2001-2017
</metadata>
<g transform="translate(0.000000,2600.000000) scale(0.100000,-0.100000)"
fill="#000000" stroke="none">
<path d="M8005 20240 c-784 -80 -1477 -383 -2105 -919 -133 -114 -392 -375
-501 -506 -467 -556 -805 -1218 -983 -1923 -56 -219 -104 -513 -126 -762 -6
-69 -13 -145 -15 -171 -3 -25 -10 -169 -15 -321 -11 -301 -1 -679 25 -968 120
-1326 554 -2563 1272 -3624 317 -469 639 -846 1068 -1250 1061 -1001 2562
-2079 4005 -2877 65 -36 150 -93 195 -132 415 -358 922 -480 1504 -361 545
112 1111 417 1948 1051 l31 24 58 -83 c177 -253 311 -418 608 -748 609 -675
965 -1031 1311 -1309 317 -255 584 -415 844 -505 199 -70 386 -97 531 -77 47
7 168 18 270 26 309 23 488 57 740 137 363 116 675 270 1047 517 815 541 1581
1380 2050 2246 220 407 382 859 438 1225 9 58 19 200 22 315 25 927 -346 1881
-912 2345 -498 408 -1092 472 -1690 181 -146 -71 -382 -228 -525 -347 -249
-208 -578 -570 -780 -856 -18 -27 -37 -48 -41 -48 -4 0 -25 28 -45 63 -21 34
-78 124 -126 200 -52 82 -86 143 -81 150 4 7 66 86 139 177 683 858 1229 1770
1596 2665 222 541 325 917 385 1400 25 202 25 723 0 925 -109 877 -450 1612
-1007 2170 -587 588 -1353 915 -2246 959 -1357 67 -2621 -640 -3576 -1999
-205 -292 -459 -752 -608 -1100 -30 -69 -56 -128 -60 -132 -3 -4 -51 90 -107
210 -56 119 -177 377 -268 572 -600 1282 -997 1914 -1544 2461 -209 208 -339
317 -551 458 -431 286 -870 446 -1445 527 -132 18 -598 27 -730 14z m8081
-8631 c249 -28 487 -123 689 -274 294 -219 505 -484 910 -1140 255 -414 347
-548 402 -584 66 -44 142 -65 218 -59 123 10 213 75 291 211 78 137 210 334
329 492 399 531 821 883 1190 990 156 46 334 45 475 -2 526 -176 935 -952 967
-1838 15 -415 -72 -760 -312 -1244 -577 -1158 -1707 -2217 -2740 -2568 -206
-70 -352 -99 -560 -113 -82 -6 -204 -18 -271 -26 -112 -15 -127 -15 -205 1
-347 70 -849 440 -1444 1064 -191 200 -693 751 -811 891 -494 583 -887 1313
-1043 1936 -60 240 -81 405 -81 632 0 319 62 577 189 792 344 578 1083 921
1807 839z"/>
</g>
</svg>
