<?xml version="1.0" standalone="no"?>
<!DOCTYPE svg PUBLIC "-//W3C//DTD SVG 20010904//EN"
 "http://www.w3.org/TR/2001/REC-SVG-20010904/DTD/svg10.dtd">
<svg version="1.0" xmlns="http://www.w3.org/2000/svg"
 viewBox="0 0 2600.000000 2600.000000"
 preserveAspectRatio="xMidYMid meet">
<metadata>
Created by potrace 1.15, written by Peter Selinger 2001-2017
</metadata>
<g transform="translate(0.000000,2600.000000) scale(0.100000,-0.100000)"
fill="#000000" stroke="none">
<path d="M7465 19454 c-354 -26 -528 -49 -758 -100 -245 -54 -511 -145 -691
-236 -347 -175 -625 -442 -776 -743 -82 -165 -158 -426 -193 -661 -11 -75 -19
-97 -45 -130 -44 -55 -71 -123 -80 -196 -7 -59 11 -619 38 -1153 86 -1741 221
-2871 477 -3980 118 -512 233 -818 404 -1075 77 -117 273 -316 379 -385 298
-196 676 -292 1263 -321 75 -4 137 -11 137 -17 0 -5 -27 -53 -60 -108 -562
-925 -967 -2517 -1081 -4249 -7 -102 -13 -338 -13 -525 0 -361 5 -409 53 -503
48 -95 160 -183 270 -212 64 -17 317 -14 446 5 315 47 632 173 935 372 137 90
198 136 346 259 l110 92 215 -93 c690 -296 1245 -586 1738 -908 216 -141 264
-160 392 -155 75 3 94 8 161 41 88 43 153 108 193 192 53 112 115 427 154 780
56 495 84 1001 146 2560 47 1181 71 1653 115 2230 82 1074 207 1782 368 2078
21 39 36 53 89 79 36 18 82 51 109 80 l46 49 231 -12 c134 -7 359 -10 534 -7
l301 6 35 -77 c129 -283 231 -680 277 -1081 60 -524 52 -1004 -35 -2130 -100
-1292 -108 -1800 -40 -2425 67 -606 224 -1160 466 -1635 79 -157 112 -199 191
-250 150 -97 338 -90 481 18 29 22 246 236 482 476 236 240 479 481 541 537
229 205 459 374 629 461 l82 42 114 -86 c569 -424 1258 -703 2209 -892 348
-69 441 -81 512 -68 172 32 298 149 343 318 17 63 17 70 -6 614 -78 1894 -335
3159 -881 4325 -38 83 -72 157 -75 166 -4 13 7 17 64 23 178 18 442 89 632
170 743 319 1057 984 1131 2391 14 260 13 959 -2 1750 -16 865 -2 1212 63
1534 27 136 20 194 -37 310 l-37 74 24 181 c29 230 32 548 5 729 -65 450 -246
784 -542 1004 -273 202 -649 297 -1051 265 -280 -22 -530 -76 -858 -186 -1044
-351 -2818 -1192 -3964 -1878 -147 -89 -119 -83 -281 -58 -117 18 -469 12
-836 -15 -543 -39 -744 -65 -910 -116 -62 -19 -67 -19 -116 -3 -27 9 -85 17
-127 18 -93 3 -136 23 -278 130 -147 111 -337 291 -648 612 -443 457 -780 797
-910 916 -211 194 -405 342 -564 433 -281 158 -750 278 -1291 330 -156 15
-637 27 -745 19z m690 -854 c407 -44 737 -122 913 -215 191 -102 359 -247 802
-698 195 -199 493 -500 661 -670 169 -170 302 -310 295 -313 -27 -10 -354 -85
-491 -113 -1291 -262 -2552 -320 -3370 -156 -624 125 -969 343 -1083 682 -24
72 -26 91 -27 253 0 191 15 284 77 480 77 244 204 385 467 519 244 124 584
208 971 240 142 12 650 6 785 -9z m11161 -195 c273 -47 405 -220 445 -582 21
-190 -2 -497 -57 -768 -58 -285 -193 -527 -369 -662 -77 -59 -204 -128 -305
-166 -292 -110 -787 -136 -1360 -71 -497 55 -633 88 -1640 389 -245 73 -538
159 -652 191 -114 32 -206 59 -205 60 20 15 507 270 772 403 871 439 1678 796
2340 1034 451 162 773 216 1031 172z m-5513 -2114 c10 -10 3 -225 -23 -661
-14 -237 -12 -649 6 -1047 24 -536 10 -1032 -32 -1165 -6 -19 -49 -30 -227
-55 -102 -15 -193 -18 -552 -18 -347 1 -759 15 -771 28 -2 2 -54 663 -80 1022
-22 304 -30 968 -15 1176 20 262 55 442 104 532 28 51 113 91 232 111 155 26
523 58 1030 90 103 6 317 -2 328 -13z m1030 -277 c246 -62 420 -111 967 -274
946 -282 1109 -324 1445 -374 993 -147 1690 -104 2225 138 63 29 145 71 181
93 l67 41 6 -182 c3 -99 11 -467 17 -816 17 -1063 -16 -1653 -116 -2095 -70
-309 -183 -540 -314 -643 -64 -51 -224 -132 -325 -166 -177 -59 -261 -70 -521
-71 -187 0 -259 4 -325 17 -47 9 -109 20 -139 23 -151 17 -564 140 -846 253
-468 187 -825 367 -1655 837 -467 264 -589 331 -765 417 -76 37 -143 69 -148
71 -5 1 -4 29 2 62 49 258 61 673 36 1220 -20 468 -21 841 -1 1175 9 140 16
270 16 288 0 17 2 32 5 32 3 0 88 -21 188 -46z m-8975 -68 c119 -75 399 -192
597 -249 457 -133 941 -190 1595 -190 541 1 1012 36 1605 119 523 73 1141 198
1545 313 58 16 106 28 108 27 1 -2 -4 -55 -12 -117 -29 -220 -39 -473 -33
-844 6 -381 17 -573 72 -1280 19 -242 39 -521 45 -620 6 -99 18 -204 26 -233
l15 -53 -45 -57 c-184 -237 -470 -494 -776 -696 -190 -126 -278 -176 -484
-277 -725 -356 -1571 -529 -2396 -490 -882 42 -1090 123 -1264 492 -122 259
-253 783 -371 1489 -116 698 -221 1696 -260 2485 -3 66 -8 139 -11 163 -3 23
-3 42 1 42 3 0 22 -11 43 -24z m8636 -3549 c78 -41 323 -177 546 -304 494
-281 680 -382 965 -529 571 -293 1093 -499 1563 -615 l174 -43 59 -106 c98
-171 269 -521 356 -726 330 -776 519 -1567 628 -2624 31 -308 82 -1107 70
-1118 -8 -8 -298 61 -481 114 -395 113 -711 247 -1001 422 -157 95 -278 185
-428 317 -60 53 -126 105 -145 115 -58 30 -140 50 -203 50 -186 0 -689 -256
-1032 -525 -183 -143 -308 -257 -597 -544 -158 -156 -289 -283 -291 -280 -2 2
-20 60 -41 129 -176 599 -224 1326 -156 2340 6 85 26 358 45 605 86 1124 100
1563 64 2075 -31 448 -116 916 -224 1229 -26 79 -29 91 -18 91 3 0 70 -33 147
-73z m-3499 -1188 c-21 -164 -61 -553 -80 -769 -49 -586 -82 -1240 -145 -2840
-36 -921 -64 -1432 -101 -1835 -11 -126 -22 -231 -23 -232 -1 -1 -33 16 -71
39 -465 270 -1139 594 -1735 834 l-195 79 -100 0 c-80 -1 -111 -5 -156 -23
-56 -22 -76 -38 -301 -236 -150 -131 -309 -250 -442 -330 -105 -63 -262 -137
-318 -151 -28 -7 -28 -7 -23 36 2 24 7 114 10 199 10 285 59 782 111 1135 221
1503 633 2652 1147 3201 51 54 124 123 163 154 l71 56 138 23 c670 111 1376
366 1920 695 77 46 141 83 142 82 2 -1 -4 -54 -12 -117z"/>
</g>
</svg>
